<svg enable-background="new 0 0 256 256" height="512" viewBox="0 0 256 256" width="512" xmlns="http://www.w3.org/2000/svg"><g id="Layer_37"><g><g><g><path d="m123.099 142.981v106.071c0 2.438 1.976 4.414 4.414 4.414h111.993c2.438 0 4.414-1.976 4.414-4.414v-106.071z" fill="#edf4fc"/></g></g><g><g><path d="m188.761 170.183h-10.709c-2.364 0-4.28 1.916-4.28 4.28v5.602c0 2.364 1.916 4.28 4.28 4.28h10.709c2.364 0 4.28-1.916 4.28-4.28v-5.602c-.001-2.364-1.917-4.28-4.28-4.28z" fill="#fcdd86"/></g></g><g><g><path d="m206.913 231.325-4.756 1.731 2.054 5.644c.751 2.063 3.032 3.127 5.095 2.376s3.127-3.032 2.376-5.095l-2.324-6.384c-.627.757-1.453 1.367-2.445 1.728z" fill="#fcdd86"/></g></g><g><g><path d="m159.899 231.325 4.756 1.731-2.054 5.644c-.751 2.063-3.032 3.127-5.095 2.376s-3.127-3.032-2.376-5.095l2.324-6.384c.627.757 1.454 1.367 2.445 1.728z" fill="#fcdd86"/></g></g><g><g><path d="m210.337 223.981-17.297-47.524v3.608c0 2.364-1.916 4.28-4.28 4.28h-4.332l17.729 48.711 4.756-1.731c2.974-1.083 4.507-4.37 3.424-7.344z" fill="#fca265"/></g></g><g><g><path d="m178.052 184.344c-2.364 0-4.28-1.916-4.28-4.28v-3.608l-17.297 47.524c-1.082 2.974.451 6.261 3.424 7.343l4.756 1.731 17.729-48.711h-4.332z" fill="#fca265"/></g></g><g><g><path d="m178.052 170.183h10.709c.014 0 .027.004.041.004v-13.362c0-1.746-1.416-3.162-3.162-3.162h-4.466c-1.746 0-3.162 1.416-3.162 3.162v13.362c.013 0 .026-.004.04-.004z" fill="#fca265"/></g></g><g><g><path d="m123.099 136.14-9.185-4.529c-4.02-1.982-6.565-6.075-6.565-10.557v-5.799c-4.823 2.626-10.341 4.121-16.191 4.121-5.455 0-10.617-1.307-15.201-3.611v5.29c0 4.482-2.545 8.574-6.565 10.557l-9.352 4.611-26.459 6.66c-5.706 1.436-9.815 6.416-10.142 12.291l-2.591 34.638c-.119 2.143 1.586 3.945 3.732 3.945h98.52v-57.617z" fill="#5290db"/></g></g><g><g><path d="m78.074 151.719c.896.936 2.381.969 3.318.074l5.411-5.175c.936-.896.969-2.381.074-3.318l-13.859-14.489c-1.001 1.14-2.216 2.106-3.625 2.801l-7.17 3.535z" fill="#67acef"/></g></g><g><g><path d="m101.678 151.649c.922.911 2.407.902 3.318-.019l16.226-16.415-7.308-3.603c-1.38-.68-2.569-1.623-3.558-2.731l-14.022 14.185c-.911.922-.902 2.408.019 3.319z" fill="#67acef"/></g></g><g><g><g><path d="m86.876 143.3c.594.621.771 1.481.555 2.253h8.383c-.318-.833-.149-1.81.519-2.486l14.022-14.185c-1.892-2.12-3.007-4.882-3.007-7.826v-5.799c-4.823 2.626-10.341 4.121-16.192 4.121-5.455 0-10.617-1.307-15.201-3.611v5.29c0 2.91-1.086 5.645-2.94 7.756z" fill="#f9c1a8"/></g></g></g><g><g><path d="m96.26 43.971c-12.444 15.649-30.801 13.44-36.974 12.149-1.122-.235-2.198.611-2.199 1.757v.023 27.407c0 18.739 15.332 34.07 34.07 34.07 18.739 0 34.07-15.332 34.07-34.07v-30.35c0-.178-.002-.356-.005-.533-.019-.966-.793-1.763-1.759-1.791-14.154-.415-21.611-6.025-24.477-8.834-.781-.767-2.044-.686-2.726.172z" fill="#f9c1a8"/></g></g><g><g><path d="m127.415 59.34c-.744 0-1.473.063-2.186.173v25.793c0 .768-.035 1.529-.086 2.285.742.119 1.497.198 2.272.198 7.856 0 14.225-6.369 14.225-14.225s-6.369-14.224-14.225-14.224z" fill="#f9c1a8"/></g></g><g><g><path d="m57.088 85.306c0-3.53 0-18.775 0-25.793-.713-.111-1.442-.173-2.186-.173-7.856 0-14.225 6.369-14.225 14.225s6.369 14.225 14.225 14.225c.775 0 1.53-.079 2.272-.198 0 0 0 0 0-.001-.051-.757-.086-1.517-.086-2.285z" fill="#f9c1a8"/></g></g><g><g><g><path d="m54.901 59.34c.744 0 1.473.063 2.186.173v-1.614c0-.008 0-.015 0-.023.001-1.146 1.077-1.991 2.199-1.757 6.172 1.292 24.53 3.5 36.974-12.149.682-.857 1.945-.938 2.727-.171 2.866 2.809 10.323 8.419 24.477 8.834.966.028 1.74.825 1.759 1.791.004.177.005.355.005.533v4.557c.713-.11 1.442-.173 2.186-.173 3.835 0 7.308 1.525 9.866 3.991v-25.586c0-10.704-8.758-19.462-19.462-19.462-3.631 0-7.025 1.026-9.942 2.775-3.407-5.686-9.614-9.525-16.69-9.525h-9.994c-19.342 0-35.167 15.825-35.167 35.167v15.758c2.435-1.947 5.517-3.119 8.876-3.119z" fill="#414344"/></g></g></g><g><g><path d="m91.158 121.876c-20.165 0-36.571-16.405-36.571-36.57v-27.407c.001-1.318.581-2.53 1.589-3.349 1.018-.827 2.34-1.147 3.622-.878 6.586 1.379 23.134 3.04 34.505-11.258.766-.963 1.907-1.559 3.131-1.635 1.229-.073 2.426.375 3.303 1.234 2.356 2.309 9.295 7.724 22.8 8.12 2.301.067 4.14 1.93 4.185 4.241.004.19.006.385.006.582v30.35c0 20.165-16.405 36.57-36.57 36.57zm-31.57-63.148v26.579c0 17.408 14.163 31.57 31.57 31.57s31.57-14.163 31.57-31.57v-30.199c-13.602-.553-21.321-5.661-24.964-9.022-12.891 15.624-31.538 13.878-38.176 12.642zm63.135-4.249v.002c0-.001 0-.002 0-.002zm-24.506-8.953c.001.001-.001.001-.002.002.001 0 .001-.001.002-.002zm-1.957-1.555h.01z"/></g></g><g><g><g><path d="m137.28 64.832c-1.381 0-2.5-1.119-2.5-2.5v-24.586c0-9.353-7.609-16.962-16.961-16.962-3.024 0-6.017.836-8.656 2.419-.569.341-1.251.44-1.893.281-.643-.161-1.196-.571-1.537-1.14-3.071-5.126-8.645-8.311-14.545-8.311h-9.994c-18.013 0-32.667 14.655-32.667 32.667v14.757c0 1.381-1.119 2.5-2.5 2.5s-2.5-1.119-2.5-2.5v-14.755c0-20.77 16.897-37.667 37.667-37.667h9.994c6.858 0 13.369 3.31 17.503 8.77 2.869-1.327 5.983-2.02 9.128-2.02 12.109 0 21.961 9.852 21.961 21.962v24.585c0 1.38-1.119 2.5-2.5 2.5z"/></g></g></g><g><g><path d="m91.653 102.958c-5.216 0-10.074-2.583-12.996-6.909-.773-1.145-.472-2.698.672-3.471 1.145-.772 2.698-.471 3.471.672 1.991 2.948 5.3 4.708 8.853 4.708s6.862-1.76 8.854-4.708c.773-1.145 2.327-1.446 3.471-.672 1.144.773 1.445 2.327.672 3.471-2.923 4.326-7.781 6.909-12.997 6.909z"/></g></g><g><g><path d="m122.187 196.257h-97.607c-1.707 0-3.358-.711-4.532-1.951-1.173-1.24-1.791-2.929-1.696-4.633l2.594-34.686c.387-6.958 5.221-12.815 12.025-14.528l26.202-6.595 9.114-4.494c3.189-1.572 5.17-4.758 5.17-8.314v-4.617c0-1.381 1.119-2.5 2.5-2.5s2.5 1.119 2.5 2.5v4.617c0 5.474-3.05 10.378-7.959 12.799l-9.352 4.611c-.158.078-.324.139-.495.182l-26.459 6.66c-4.67 1.176-7.988 5.197-8.256 10.005l-2.594 34.686c-.023.416.203.727.34.872s.435.387.899.387h97.608c1.381 0 2.5 1.119 2.5 2.5s-1.121 2.499-2.502 2.499z"/></g></g><g><g><path d="m122.61 138.4c-.371 0-.748-.083-1.104-.258l-8.697-4.288c-4.91-2.42-7.959-7.325-7.959-12.799v-4.961c0-1.381 1.119-2.5 2.5-2.5s2.5 1.119 2.5 2.5v4.961c0 3.556 1.981 6.742 5.17 8.314l8.697 4.288c1.238.61 1.748 2.109 1.137 3.348-.435.883-1.322 1.395-2.244 1.395z"/></g></g><g><g><path d="m47.935 196.257c-1.381 0-2.5-1.119-2.5-2.5v-29.357c0-1.381 1.119-2.5 2.5-2.5s2.5 1.119 2.5 2.5v29.357c0 1.381-1.12 2.5-2.5 2.5z"/></g></g><g><g><g><circle cx="78.078" cy="75.35" r="4.509"/></g></g><g><g><circle cx="104.657" cy="75.35" r="4.509"/></g></g></g><g><g><path d="m127.415 90.29c-.557 0-1.121-.033-1.725-.101-1.373-.153-2.36-1.39-2.207-2.762s1.389-2.364 2.762-2.207c.418.046.8.069 1.169.069 6.465 0 11.725-5.26 11.725-11.725s-5.26-11.725-11.725-11.725c-.305 0-.606.013-.905.037-1.365.111-2.581-.916-2.692-2.292-.11-1.376.916-2.582 2.292-2.692.431-.034.866-.053 1.305-.053 9.222 0 16.725 7.502 16.725 16.725s-7.502 16.726-16.724 16.726z"/></g></g><g><g><path d="m54.901 90.29c-9.222 0-16.725-7.502-16.725-16.725s7.503-16.725 16.725-16.725c.439 0 .875.019 1.305.053 1.376.111 2.402 1.316 2.292 2.692-.111 1.377-1.313 2.405-2.692 2.292-.299-.024-.6-.037-.905-.037-6.465 0-11.725 5.26-11.725 11.725s5.26 11.725 11.725 11.725c.311 0 .617-.017.92-.044 1.382-.122 2.592.887 2.718 2.262s-.887 2.592-2.262 2.718c-.453.04-.911.064-1.376.064z"/></g></g><g><g><path d="m79.771 154.941c-1.277 0-2.552-.5-3.503-1.493l-15.206-15.898c-.955-.998-.919-2.58.079-3.535s2.58-.919 3.535.079l15.1 15.786 5.189-4.963-13.117-13.713c-.954-.998-.919-2.58.079-3.535s2.581-.919 3.535.079l13.223 13.824c1.847 1.931 1.779 5.005-.152 6.853l-5.413 5.175c-.937.896-2.144 1.341-3.349 1.341z"/></g></g><g><g><path d="m103.327 154.824c-1.231 0-2.464-.465-3.407-1.397l-5.325-5.264c-1.901-1.878-1.918-4.953-.04-6.854l13.476-13.632c.97-.983 2.554-.991 3.535-.021.982.971.991 2.553.021 3.535l-13.367 13.524 5.106 5.048 15.695-15.877c.971-.982 2.553-.991 3.535-.021s.991 2.553.021 3.535l-15.802 15.986c-.947.959-2.197 1.438-3.448 1.438z"/></g></g><g><g><g><path d="m94.815 148.052h-6.383c-1.381 0-2.5-1.119-2.5-2.5s1.119-2.5 2.5-2.5h6.383c1.381 0 2.5 1.119 2.5 2.5s-1.119 2.5-2.5 2.5z"/></g></g></g><g><g><path d="m239.506 125.556h-111.993c-2.438 0-4.414 1.976-4.414 4.414v13.011h120.821v-13.011c0-2.438-1.976-4.414-4.414-4.414z" fill="#5290db"/></g></g><g><g><path d="m141.769 125.556h-14.256c-2.438 0-4.414 1.976-4.414 4.414v13.011h18.67z" fill="#fc657e"/></g></g><g><g><path d="m214.463 136.768h-61.078c-1.381 0-2.5-1.119-2.5-2.5s1.119-2.5 2.5-2.5h61.078c1.381 0 2.5 1.119 2.5 2.5s-1.119 2.5-2.5 2.5z"/></g></g><g><g><path d="m234.203 136.768h-9.032c-1.381 0-2.5-1.119-2.5-2.5s1.119-2.5 2.5-2.5h9.032c1.381 0 2.5 1.119 2.5 2.5s-1.12 2.5-2.5 2.5z"/></g></g><g><g><path d="m239.506 255.966h-111.993c-3.813 0-6.914-3.102-6.914-6.914v-106.072c0-1.381 1.119-2.5 2.5-2.5s2.5 1.119 2.5 2.5v106.071c0 1.055.859 1.914 1.914 1.914h111.993c1.055 0 1.914-.859 1.914-1.914v-106.071c0-1.381 1.119-2.5 2.5-2.5s2.5 1.119 2.5 2.5v106.071c0 3.813-3.102 6.915-6.914 6.915z"/></g></g><g><g><path d="m243.92 145.48h-120.821c-1.381 0-2.5-1.119-2.5-2.5v-13.01c0-3.813 3.102-6.914 6.914-6.914h111.993c3.812 0 6.914 3.102 6.914 6.914v13.011c0 1.38-1.119 2.499-2.5 2.499zm-118.321-5h115.821v-10.51c0-1.055-.858-1.914-1.914-1.914h-111.993c-1.055 0-1.914.859-1.914 1.914z"/></g></g><g><g><path d="m141.769 144.48c-1.381 0-2.5-1.119-2.5-2.5v-15.425c0-1.381 1.119-2.5 2.5-2.5s2.5 1.119 2.5 2.5v15.425c0 1.381-1.12 2.5-2.5 2.5z"/></g></g><g><g><path d="m188.761 186.844h-10.709c-3.738 0-6.779-3.041-6.779-6.779v-5.602c0-3.738 3.041-6.779 6.779-6.779h10.709c3.738 0 6.779 3.041 6.779 6.779v5.602c0 3.738-3.041 6.779-6.779 6.779zm-10.709-14.16c-.981 0-1.779.798-1.779 1.779v5.602c0 .981.798 1.779 1.779 1.779h10.709c.981 0 1.779-.798 1.779-1.779v-5.602c0-.981-.798-1.779-1.779-1.779z"/></g></g><g><g><path d="m207.943 243.818c-.933 0-1.862-.204-2.733-.61-1.568-.731-2.757-2.029-3.348-3.654l-1.988-5.462c-.472-1.297.197-2.732 1.494-3.204 1.296-.473 2.732.197 3.204 1.494l1.988 5.462c.135.371.406.666.763.833s.758.185 1.128.049c.764-.278 1.16-1.126.882-1.891l-2.182-5.994c-.472-1.297.197-2.732 1.494-3.204 1.296-.471 2.732.197 3.204 1.494l2.182 5.994c.592 1.625.515 3.383-.216 4.951-.731 1.567-2.028 2.757-3.654 3.348-.722.264-1.471.394-2.218.394z"/></g></g><g><g><path d="m158.869 243.818c-.747 0-1.496-.131-2.218-.394-3.355-1.221-5.091-4.944-3.87-8.299l2.189-6.014c.473-1.298 1.908-1.967 3.204-1.494 1.297.472 1.966 1.907 1.494 3.204l-2.189 6.014c-.278.765.118 1.613.882 1.891.37.134.771.116 1.128-.049.357-.167.628-.462.762-.832l1.934-5.312c.472-1.298 1.907-1.968 3.204-1.494 1.298.472 1.966 1.907 1.494 3.204l-1.934 5.312c-.591 1.625-1.78 2.923-3.348 3.654-.87.405-1.799.609-2.732.609z"/></g></g><g><g><path d="m202.157 235.556c-.362 0-.723-.079-1.057-.234-.601-.28-1.066-.788-1.292-1.411l-17.542-48.197c-.472-1.297.197-2.732 1.494-3.204 1.296-.473 2.732.197 3.204 1.494l16.687 45.848 2.407-.876c1.673-.609 2.539-2.466 1.93-4.14l-17.143-47.098c-.472-1.297.197-2.732 1.494-3.204s2.731.197 3.204 1.494l17.143 47.098c.752 2.065.655 4.3-.274 6.292s-2.578 3.503-4.644 4.255l-4.756 1.731c-.276.101-.566.152-.855.152z"/></g></g><g><g><path d="m164.655 235.556c-.284 0-.573-.048-.855-.151l-4.756-1.731c-2.066-.752-3.715-2.263-4.644-4.255s-1.026-4.227-.274-6.292l17.143-47.098c.472-1.297 1.908-1.967 3.204-1.494 1.297.472 1.966 1.907 1.494 3.204l-17.143 47.098c-.609 1.673.257 3.53 1.93 4.14l2.407.876 16.701-45.885c.472-1.297 1.908-1.968 3.204-1.494 1.297.472 1.966 1.907 1.494 3.204l-17.556 48.234c-.369 1.014-1.328 1.644-2.349 1.644z"/></g></g><g><g><path d="m188.801 171.688c-1.381 0-2.5-1.119-2.5-2.5v-12.362c0-.365-.297-.662-.662-.662h-4.466c-.365 0-.662.297-.662.662v11.908c.027.146.041.297.041.451 0 1.31-1.007 2.384-2.289 2.491-.085.008-.173.013-.252.013-1.381 0-2.5-1.119-2.5-2.5v-12.362c0-3.122 2.54-5.662 5.662-5.662h4.466c3.122 0 5.662 2.54 5.662 5.662v12.362c0 1.379-1.119 2.499-2.5 2.499z"/></g></g><g><g><g><path d="m184.313 179.764h-1.814c-1.381 0-2.5-1.119-2.5-2.5s1.119-2.5 2.5-2.5h1.814c1.381 0 2.5 1.119 2.5 2.5s-1.119 2.5-2.5 2.5z"/></g></g></g><g><g><path d="m183.406 202.245c-2.197 0-4.388-.245-6.513-.728-1.346-.306-2.189-1.646-1.884-2.992.306-1.346 1.648-2.186 2.992-1.884 3.508.797 7.256.802 10.769.009 1.344-.302 2.685.542 2.989 1.889.303 1.347-.542 2.685-1.889 2.989-2.11.476-4.284.717-6.464.717z"/></g></g><g><g><path d="m161.918 20.551c-4.149.773-7.419 3.976-8.208 8.041-.04.204-.325.204-.364 0-.789-4.065-4.059-7.268-8.208-8.041-.208-.039-.208-.318 0-.357 4.149-.773 7.419-3.976 8.208-8.041.04-.204.325-.204.364 0 .789 4.065 4.059 7.268 8.208 8.041.208.039.208.318 0 .357z" fill="#f5c84c"/></g></g><g><g><path d="m155.899 97.488c-2.675.498-4.783 2.563-5.291 5.184-.026.132-.209.132-.235 0-.509-2.62-2.617-4.686-5.291-5.184-.134-.025-.134-.205 0-.23 2.675-.498 4.783-2.563 5.291-5.184.026-.132.209-.132.235 0 .508 2.62 2.617 4.686 5.291 5.184.135.025.135.205 0 .23z" fill="#fc657e"/></g></g><g><g><circle cx="131.981" cy="3.377" fill="#87d147" r="3.377"/></g></g><g><g><circle cx="106.981" cy="230.377" fill="#f5c84c" r="3.377"/></g></g><g><g><path d="m90.454 209.758h-1.824v-1.824c0-1.366-1.107-2.473-2.473-2.473s-2.473 1.107-2.473 2.473v1.824h-1.824c-1.366 0-2.473 1.107-2.473 2.473s1.107 2.473 2.473 2.473h1.824v1.824c0 1.366 1.107 2.473 2.473 2.473s2.473-1.107 2.473-2.473v-1.824h1.824c1.366 0 2.473-1.107 2.473-2.473s-1.108-2.473-2.473-2.473z" fill="#70d6f9"/></g></g></g></g></svg>