<svg id="Capa_1" enable-background="new 0 0 512 512" height="512" viewBox="0 0 512 512" width="512" xmlns="http://www.w3.org/2000/svg"><g><g><path d="m478.699 203.967c-11.456 0-21.555 9.042-27.544 22.805-3.294 7.568-10.625 12.577-18.879 12.577h-15.552c-3.12 0-5.741-2.307-6.178-5.396-.389-2.748-.853-5.47-1.387-8.168-1.108-5.596.156-11.398 3.564-15.972l.05-.067c9.082-12.19 1.825-29.658-13.221-31.825-5.661-.815-10.676-4.027-13.855-8.781-1.551-2.32-3.163-4.596-4.837-6.823-1.875-2.494-1.651-5.978.555-8.184l10.779-10.779c5.826-5.826 14.577-7.828 22.23-4.778 14.052 5.6 27.695 4.891 35.842-3.256 13.005-13.005 7.075-40.02-13.245-60.34s-47.335-26.25-60.34-13.245c-8.147 8.147-8.856 21.79-3.256 35.842 3.05 7.653 1.048 16.404-4.778 22.23l-10.779 10.779c-2.206 2.206-5.69 2.43-8.184.555-2.227-1.674-4.503-3.286-6.823-4.837-4.754-3.179-7.966-8.195-8.781-13.855-2.166-15.046-19.634-22.303-31.824-13.221l-.067.05c-4.574 3.408-10.376 4.671-15.972 3.564-2.698-.534-5.421-.998-8.168-1.387-3.089-.437-5.396-3.058-5.396-6.178v-15.553c0-8.254 5.008-15.586 12.577-18.879 13.763-5.99 22.805-16.089 22.805-27.544-.002-18.392-23.298-33.301-52.035-33.301s-52.033 14.909-52.033 33.301c0 11.456 9.042 21.555 22.805 27.544 7.568 3.294 12.577 10.625 12.577 18.879v15.552c0 3.12-2.307 5.741-5.396 6.178-2.748.388-5.47.853-8.168 1.387-5.596 1.108-11.398-.156-15.972-3.564l-.067-.05c-12.19-9.082-29.658-1.825-31.824 13.221-.815 5.661-4.027 10.676-8.781 13.855-2.32 1.551-4.596 3.163-6.823 4.837-2.494 1.874-5.978 1.651-8.184-.555l-10.779-10.779c-5.826-5.826-7.828-14.577-4.778-22.23 5.6-14.052 4.891-27.695-3.256-35.842-13.005-13.005-40.02-7.075-60.34 13.245s-26.25 47.335-13.245 60.34c8.147 8.147 21.79 8.856 35.842 3.256 7.653-3.05 16.404-1.048 22.23 4.778l10.779 10.779c2.206 2.206 2.43 5.69.555 8.184-1.674 2.227-3.286 4.503-4.837 6.823-3.179 4.754-8.195 7.966-13.855 8.781-15.046 2.166-22.303 19.634-13.221 31.825l.05.067c3.408 4.575 4.671 10.376 3.564 15.972-.534 2.698-.998 5.421-1.387 8.168-.437 3.089-3.058 5.396-6.178 5.396h-15.554c-8.254 0-15.585-5.008-18.879-12.577-5.99-13.763-16.089-22.805-27.544-22.805-18.392.001-33.301 23.297-33.301 52.034s14.909 52.033 33.301 52.033c11.456 0 21.555-9.042 27.544-22.806 3.294-7.568 10.625-12.577 18.879-12.577h15.552c3.12 0 5.741 2.307 6.178 5.396.389 2.748.853 5.47 1.387 8.168 1.108 5.596-.156 11.398-3.564 15.972l-.05.067c-9.082 12.19-1.825 29.658 13.221 31.825 5.661.815 10.676 4.027 13.855 8.781 1.551 2.32 3.163 4.596 4.837 6.823 1.875 2.494 1.651 5.978-.555 8.184l-10.779 10.779c-5.826 5.826-14.577 7.828-22.23 4.778-14.052-5.6-27.696-4.891-35.842 3.256-13.005 13.005-7.075 40.02 13.245 60.34s47.335 26.25 60.34 13.245c8.147-8.147 8.856-21.79 3.256-35.842-3.05-7.653-1.048-16.404 4.778-22.23l10.779-10.779c2.206-2.206 5.69-2.43 8.184-.555 2.227 1.674 4.503 3.286 6.823 4.837 4.754 3.179 7.966 8.195 8.781 13.855 2.166 15.046 19.634 22.303 31.824 13.221l.067-.05c4.574-3.408 10.376-4.671 15.972-3.564 2.698.534 5.421.998 8.168 1.387 3.089.437 5.396 3.058 5.396 6.178v15.552c0 8.254-5.008 15.586-12.577 18.879-13.763 5.99-22.805 16.089-22.805 27.544.002 18.394 23.298 33.303 52.035 33.303s52.033-14.909 52.033-33.301c0-11.456-9.042-21.555-22.805-27.544-7.568-3.294-12.577-10.625-12.577-18.879v-15.552c0-3.12 2.307-5.741 5.396-6.178 2.748-.388 5.47-.853 8.168-1.387 5.596-1.108 11.398.156 15.972 3.564l.067.05c12.19 9.082 29.658 1.825 31.824-13.221.815-5.661 4.027-10.676 8.781-13.855 2.32-1.551 4.596-3.163 6.823-4.837 2.494-1.874 5.978-1.651 8.184.555l10.779 10.779c5.826 5.826 7.828 14.577 4.778 22.23-5.6 14.052-4.891 27.695 3.256 35.842 13.005 13.005 40.02 7.075 60.34-13.245s26.25-47.335 13.245-60.34c-8.147-8.147-21.79-8.856-35.842-3.256-7.653 3.05-16.404 1.048-22.23-4.778l-10.779-10.779c-2.206-2.206-2.43-5.69-.556-8.184 1.656-2.203 3.254-4.452 4.793-6.744 3.186-4.746 8.197-7.956 13.853-8.783l.01-.001c15.083-2.204 22.341-19.719 13.238-31.945l-.015-.02c-3.403-4.571-4.669-10.365-3.571-15.957.014-.073.029-.147.043-.22 1.516-7.781 8.391-13.361 16.318-13.361h6.75c8.254 0 15.585 5.008 18.879 12.577 5.99 13.763 16.089 22.806 27.544 22.806 18.392-.003 33.301-23.299 33.301-52.036s-14.909-52.033-33.301-52.033z" fill="#ac80dd"/><g fill="#9d66d5"><path d="m137.473 403.526c-28.627-1.213-56.02-7.198-81.388-17.208-4.29 14.212 2.759 34.565 18.896 50.702 20.32 20.32 47.335 26.25 60.34 13.245 8.147-8.147 8.856-21.79 3.256-35.842-1.408-3.531-1.727-7.294-1.104-10.897z"/><path d="m399.231 138.701c4.794-1.944 10.222-2.105 15.192-.125 14.052 5.6 27.695 4.891 35.842-3.256 13.005-13.005 7.075-40.02-13.245-60.34-18.143-18.143-41.615-24.801-55.695-16.765 10.15 25.075 16.377 52.154 17.906 80.486z"/><path d="m478.699 203.967c-11.456 0-21.555 9.042-27.544 22.806-3.294 7.568-10.625 12.577-18.879 12.577h-15.552c-3.12 0-5.741-2.307-6.178-5.396-.389-2.748-.853-5.47-1.387-8.168-1.108-5.596.156-11.398 3.564-15.972l.05-.067c9.082-12.19 1.825-29.658-13.221-31.825-.405-.058-.799-.156-1.197-.238-11.665 117.013-103.59 210.38-219.93 224.284 3.585 13.377 19.805 19.385 31.321 10.805l.067-.05c4.575-3.408 10.376-4.671 15.972-3.564 2.698.534 5.421.998 8.168 1.387 3.089.437 5.396 3.058 5.396 6.178v15.552c0 8.254-5.008 15.586-12.577 18.879-13.763 5.99-22.805 16.089-22.805 27.544 0 18.392 23.296 33.301 52.033 33.301s52.033-14.909 52.033-33.301c0-11.456-9.042-21.555-22.805-27.544-7.568-3.294-12.577-10.625-12.577-18.879v-15.552c0-3.12 2.307-5.741 5.396-6.178 2.748-.388 5.47-.853 8.168-1.387 5.596-1.108 11.397.156 15.972 3.564l.067.05c12.19 9.082 29.658 1.825 31.824-13.221.815-5.661 4.027-10.676 8.781-13.855 2.32-1.551 4.596-3.163 6.823-4.837 2.494-1.874 5.978-1.651 8.184.555l10.779 10.779c5.826 5.826 7.828 14.577 4.778 22.23-5.6 14.052-4.891 27.695 3.256 35.842 13.005 13.005 40.02 7.075 60.34-13.245s26.25-47.335 13.245-60.34c-8.147-8.147-21.79-8.856-35.842-3.256-7.653 3.05-16.404 1.048-22.23-4.778l-10.779-10.779c-2.206-2.206-2.43-5.69-.556-8.184 1.656-2.203 3.254-4.452 4.793-6.744 3.186-4.746 8.196-7.956 13.853-8.783l.01-.001c15.083-2.204 22.341-19.719 13.238-31.945l-.015-.02c-3.403-4.571-4.669-10.365-3.571-15.957.014-.073.029-.147.043-.22 1.516-7.781 8.391-13.361 16.318-13.361h6.75c8.254 0 15.585 5.008 18.879 12.577 5.99 13.763 16.089 22.806 27.544 22.806 18.392-.003 33.301-23.299 33.301-52.036s-14.909-52.033-33.301-52.033z"/></g><g fill="#8659b9"><ellipse cx="256" cy="16.65" rx="31.22" ry="16.65"/><ellipse cx="86.754" cy="86.754" rx="31.22" ry="16.65" transform="matrix(.707 -.707 .707 .707 -35.935 86.754)"/><ellipse cx="16.65" cy="256" rx="16.65" ry="31.22"/><ellipse cx="86.754" cy="425.246" rx="16.65" ry="31.22" transform="matrix(.707 -.707 .707 .707 -275.284 185.896)"/><ellipse cx="256" cy="495.35" rx="31.22" ry="16.65"/><ellipse cx="425.246" cy="425.246" rx="31.22" ry="16.65" transform="matrix(.707 -.707 .707 .707 -176.143 425.246)"/><ellipse cx="495.35" cy="256" rx="16.65" ry="31.22"/><ellipse cx="425.246" cy="86.754" rx="16.65" ry="31.22" transform="matrix(.707 -.707 .707 .707 63.207 326.104)"/></g></g><g><path d="m229.548 172.817-64.441 102.798c-13.034 20.792 1.912 47.801 26.452 47.801h128.882c24.54 0 39.486-27.009 26.452-47.801l-64.441-102.798c-12.235-19.517-40.669-19.517-52.904 0z" fill="#ffe07d"/><path d="m346.893 275.615-36.512-58.245c.509 4.096.774 8.267.774 12.501 0 42.551-26.466 78.918-63.833 93.546h73.119c24.54-.001 39.486-27.01 26.452-47.802z" fill="#f1cb86"/></g><g><path d="m265.059 288.653c0 5.003-4.056 9.059-9.059 9.059s-9.059-4.056-9.059-9.059 4.056-9.059 9.059-9.059c5.003.001 9.059 4.056 9.059 9.059z" fill="#30579d"/><g><g><g><path d="m256.133 262.621c-4.268 0-7.726-3.459-7.726-7.726v-54.489c0-4.267 3.459-7.726 7.726-7.726 4.268 0 7.726 3.459 7.726 7.726v54.489c0 4.266-3.459 7.726-7.726 7.726z" fill="#30579d"/></g></g></g></g></g></svg>