<svg id="Layer_3" enable-background="new 0 0 64 64" height="512" viewBox="0 0 64 64" width="512" xmlns="http://www.w3.org/2000/svg"><g><path d="m30.336 14.034c.797-2.296 2.946-3.955 5.497-4.025 1.542-3.536 5.064-6.009 9.167-6.009 5.523 0 10 4.477 10 10 0 .077-.01.151-.011.228 4.012.906 7.011 4.486 7.011 8.772 0 4.971-4.029 9-9 9-2.694 0-5.105-1.19-6.754-3.065-1.265.678-2.71 1.065-4.246 1.065s-2.981-.387-4.246-1.065c-1.649 1.875-4.06 3.065-6.754 3.065-4.971 0-9-4.029-9-9 0-4.747 3.677-8.626 8.336-8.966z" fill="#758190"/><path d="m12.958 24.16 3-3 5-1v-4l3-3-3-3v-4l-5-1-3-3-3 3-5 1v4l-3 3 3 3v4l5 1z" fill="#f7d881"/><circle cx="12.958" cy="13.16" fill="#c16b3f" r="6"/><path d="m6.958 13.16c0 1.305.421 2.509 1.129 3.494 3.755-1.268 6.462-4.812 6.462-8.995 0-.096-.011-.188-.014-.283-.503-.137-1.03-.216-1.576-.216-3.315 0-6.001 2.687-6.001 6z" fill="#e39854"/><path d="m33.664 24.034c-.797-2.296-2.946-3.955-5.497-4.025-1.542-3.536-5.064-6.009-9.167-6.009-5.523 0-10 4.477-10 10 0 .077.01.151.011.228-4.012.906-7.011 4.486-7.011 8.772 0 4.971 4.029 9 9 9 2.694 0 5.105-1.19 6.754-3.065 1.265.678 2.71 1.065 4.246 1.065s2.981-.387 4.246-1.065c1.649 1.875 4.06 3.065 6.754 3.065 4.971 0 9-4.029 9-9 0-4.747-3.677-8.626-8.336-8.966z" fill="#c1c8d1"/><g fill="#c7e2fc"><path d="m5 45-2.4 3.2c-.389.519-.6 1.151-.6 1.8 0 1.657 1.343 3 3 3 1.657 0 3-1.343 3-3 0-.649-.211-1.281-.6-1.8z"/><path d="m14 54-2.4 3.2c-.389.519-.6 1.151-.6 1.8 0 1.657 1.343 3 3 3 1.657 0 3-1.343 3-3 0-.649-.211-1.281-.6-1.8z"/><path d="m22 44-2.4 3.2c-.389.519-.6 1.151-.6 1.8 0 1.657 1.343 3 3 3 1.657 0 3-1.343 3-3 0-.649-.211-1.281-.6-1.8z"/><path d="m32 50-2.4 3.2c-.389.519-.6 1.151-.6 1.8 0 1.657 1.343 3 3 3 1.657 0 3-1.343 3-3 0-.649-.211-1.281-.6-1.8z"/><path d="m59 35-2.4 3.2c-.389.519-.6 1.151-.6 1.8 0 1.657 1.343 3 3 3 1.657 0 3-1.343 3-3 0-.649-.211-1.281-.6-1.8z"/><path d="m57 54-2.4 3.2c-.389.519-.6 1.151-.6 1.8 0 1.657 1.343 3 3 3 1.657 0 3-1.343 3-3 0-.649-.211-1.281-.6-1.8z"/><path d="m48 43-2.4 3.2c-.389.519-.6 1.151-.6 1.8 0 1.657 1.343 3 3 3 1.657 0 3-1.343 3-3 0-.649-.211-1.281-.6-1.8z"/></g><path d="m51.999 13.998h-2c0-2.757-2.242-4.999-4.999-4.999v-2c3.859 0 6.999 3.14 6.999 6.999z" fill="#c1c8d1"/><path d="m33 38.998v-2c2.205 0 3.999-1.794 3.999-3.998h2c0 3.308-2.691 5.998-5.999 5.998z" fill="#ebf7fe"/><path d="m46.025 30.153c1.864 1.818 4.365 2.847 6.975 2.847 5.514 0 10-4.486 10-10 0-4.433-2.846-8.248-7.013-9.54-.283-5.815-5.102-10.46-10.987-10.46-4.17 0-7.961 2.357-9.823 6.056-2.414.288-4.533 1.835-5.543 4.046-1.626.222-3.142.855-4.471 1.816-.336-.228-.684-.433-1.043-.623l.587-.587c.391-.391.391-1.023 0-1.414l-2.707-2.708v-3.586c0-.477-.337-.887-.804-.98l-4.703-.94-2.786-2.786c-.391-.391-1.023-.391-1.414 0l-2.786 2.785-4.703.941c-.467.093-.804.503-.804.98v3.586l-2.707 2.707c-.391.391-.391 1.023 0 1.414l2.707 2.707v3.586c0 .477.336.887.804.98l3.456.691c-.126.582-.217 1.176-.247 1.788-4.167 1.293-7.013 5.108-7.013 9.541 0 5.514 4.486 10 10 10 2.61 0 5.111-1.029 6.975-2.847 2.527 1.112 5.525 1.11 8.051 0 1.863 1.818 4.364 2.847 6.974 2.847 5.514 0 10-4.486 10-10 0-.7-.081-1.382-.22-2.044 1.113-.089 2.222-.352 3.245-.803zm-15.615-15.123c.397-.029.74-.292.871-.669.677-1.949 2.518-3.297 4.58-3.353.388-.011.734-.245.89-.601 1.432-3.284 4.67-5.407 8.249-5.407 4.963 0 9 4.037 8.996 9.055l-.008.147c-.012.477.314.896.779 1.001 3.67.828 6.233 4.035 6.233 7.797 0 4.411-3.589 8-8 8-2.292 0-4.479-.993-6.003-2.726-.308-.35-.815-.439-1.224-.221-1.114.597-2.383.902-3.636.926-1.376-3.095-4.277-5.397-7.771-5.878-1.01-2.212-3.129-3.759-5.543-4.048-.536-1.065-1.247-2.002-2.067-2.821 1.099-.688 2.34-1.105 3.654-1.202zm-24.41 4.151v-3.181c0-.266-.105-.52-.293-.707l-2.293-2.293 2.293-2.293c.188-.187.293-.441.293-.707v-3.181l4.196-.839c.193-.039.371-.134.511-.273l2.293-2.293 2.293 2.293c.14.14.317.234.511.273l4.196.839v3.181c0 .266.105.52.293.707l2.293 2.293-.46.46c-.688-.204-1.403-.324-2.132-.39 0-.024.006-.047.006-.07 0-3.859-3.141-7-7-7s-7 3.141-7 7c0 2.429 1.252 4.644 3.262 5.914-.143.274-.276.553-.396.84zm4.346-1.945c-1.445-.905-2.346-2.495-2.346-4.236 0-2.757 2.243-5 5-5s5 2.243 5 5c0 .017-.004.033-.004.049-3.103.283-5.829 1.863-7.65 4.187zm22.654 23.764c-2.292 0-4.479-.993-6.003-2.726-.195-.222-.471-.34-.751-.34-.161 0-.323.039-.473.119-2.323 1.247-5.221 1.248-7.547 0-.41-.22-.917-.129-1.224.221-1.523 1.733-3.71 2.726-6.002 2.726-4.411 0-8-3.589-8-8 0-3.762 2.562-6.969 6.232-7.797.465-.105.791-.524.779-1.001l-.011-.202c0-4.963 4.037-9 9-9 3.579 0 6.817 2.123 8.249 5.408.155.355.502.59.89.601 2.062.056 3.903 1.403 4.58 3.353.131.377.474.64.871.669 4.155.303 7.41 3.804 7.41 7.969 0 4.411-3.589 8-8 8z"/><path d="m5.8 44.4c-.377-.504-1.223-.504-1.6 0l-2.401 3.201c-.515.689-.799 1.541-.799 2.399 0 2.206 1.794 4 4 4s4-1.794 4-4c0-.858-.284-1.71-.8-2.399zm-.8 7.6c-1.103 0-2-.897-2-2 0-.43.143-.855.399-1.2l1.601-2.133 1.6 2.132c.257.346.4.771.4 1.201 0 1.103-.897 2-2 2z"/><path d="m14.8 53.4c-.377-.504-1.223-.504-1.6 0l-2.401 3.201c-.515.689-.799 1.541-.799 2.399 0 2.206 1.794 4 4 4s4-1.794 4-4c0-.858-.284-1.71-.8-2.399zm-.8 7.6c-1.103 0-2-.897-2-2 0-.43.143-.855.399-1.2l1.601-2.133 1.6 2.132c.257.346.4.771.4 1.201 0 1.103-.897 2-2 2z"/><path d="m22.8 43.4c-.377-.504-1.223-.504-1.6 0l-2.401 3.201c-.515.689-.799 1.541-.799 2.399 0 2.206 1.794 4 4 4s4-1.794 4-4c0-.858-.284-1.71-.8-2.399zm-.8 7.6c-1.103 0-2-.897-2-2 0-.43.143-.855.399-1.2l1.601-2.133 1.6 2.132c.257.346.4.771.4 1.201 0 1.103-.897 2-2 2z"/><path d="m32.8 49.4c-.377-.504-1.223-.504-1.6 0l-2.401 3.201c-.515.689-.799 1.541-.799 2.399 0 2.206 1.794 4 4 4s4-1.794 4-4c0-.858-.284-1.71-.8-2.399zm-.8 7.6c-1.103 0-2-.897-2-2 0-.43.143-.855.399-1.2l1.601-2.133 1.6 2.132c.257.346.4.771.4 1.201 0 1.103-.897 2-2 2z"/><path d="m59.8 34.4c-.377-.504-1.223-.504-1.6 0l-2.401 3.201c-.515.689-.799 1.541-.799 2.399 0 2.206 1.794 4 4 4s4-1.794 4-4c0-.858-.284-1.71-.8-2.399zm-.8 7.6c-1.103 0-2-.897-2-2 0-.43.143-.855.399-1.2l1.601-2.133 1.6 2.132c.257.346.4.771.4 1.201 0 1.103-.897 2-2 2z"/><path d="m57.8 53.4c-.377-.504-1.223-.504-1.6 0l-2.401 3.201c-.515.689-.799 1.541-.799 2.399 0 2.206 1.794 4 4 4s4-1.794 4-4c0-.858-.284-1.71-.8-2.399zm-.8 7.6c-1.103 0-2-.897-2-2 0-.43.143-.855.399-1.2l1.601-2.133 1.6 2.132c.257.346.4.771.4 1.201 0 1.103-.897 2-2 2z"/><path d="m48.8 42.4c-.377-.504-1.223-.504-1.6 0l-2.401 3.201c-.515.689-.799 1.541-.799 2.399 0 2.206 1.794 4 4 4s4-1.794 4-4c0-.858-.284-1.71-.8-2.399zm-.8 7.6c-1.103 0-2-.897-2-2 0-.43.143-.855.399-1.2l1.601-2.133 1.6 2.132c.257.346.4.771.4 1.201 0 1.103-.897 2-2 2z"/><path d="m50 14h2c0-3.859-3.141-7-7-7v2c2.757 0 5 2.243 5 5z"/><path d="m33 37v2c3.309 0 6-2.691 6-6h-2c0 2.206-1.794 4-4 4z"/></g></svg>