<svg width="452" height="507" viewBox="0 0 452 507" fill="none" xmlns="http://www.w3.org/2000/svg">
<path d="M125.02 462.54C122.91 457.74 120.91 452.22 123.02 447.42C124.397 444.593 126.763 442.37 129.67 441.17C132.546 439.997 135.578 439.249 138.67 438.95C148.374 437.677 158.194 437.543 167.93 438.55C168.64 444.17 167.14 449.87 165.85 455.3C164.68 460.3 164.01 461.04 158.85 461.3C155.51 461.48 125.81 464.31 125.02 462.54Z" fill="#FBBEBE"/>
<path d="M214.07 430.16C293.047 430.16 357.07 412.251 357.07 390.16C357.07 368.069 293.047 350.16 214.07 350.16C135.093 350.16 71.07 368.069 71.07 390.16C71.07 412.251 135.093 430.16 214.07 430.16Z" fill="#464353"/>
<path opacity="0.1" d="M214.07 430.16C293.047 430.16 357.07 412.251 357.07 390.16C357.07 368.069 293.047 350.16 214.07 350.16C135.093 350.16 71.07 368.069 71.07 390.16C71.07 412.251 135.093 430.16 214.07 430.16Z" fill="black"/>
<path d="M239.71 179C234.808 188.472 226.667 195.867 216.77 199.84C210.927 201.969 204.777 203.138 198.56 203.3C191.77 203.61 184.84 203.17 178.46 200.85C169.9 197.75 162.79 191.41 157.46 184.02C152.13 176.63 148.46 168.19 145.27 159.68C143.59 155.25 141.99 150.53 142.78 145.85C147.93 144.68 153.57 142.96 156.23 138.39C158.5 134.47 157.87 129.77 156.56 125.29C156.19 124.02 155.76 122.76 155.33 121.55C154.33 118.65 150.88 113.14 153.33 110.66C154.86 109.09 161.27 108.29 163.48 107.27C170.29 104.13 176.57 99.59 184.05 98.1C190.52 96.81 197.2 98.02 203.66 99.36C204.517 99.4846 205.34 99.7805 206.08 100.23C206.924 100.941 207.548 101.878 207.88 102.93C209.72 107.41 210.8 112.36 212.28 117.03C213.82 121.92 215.8 126.51 219.51 129.98C222.4 132.69 226.08 134.39 229.68 136.04L238.54 140.1C240.116 140.69 241.545 141.615 242.73 142.81C243.889 144.403 244.581 146.286 244.73 148.25C246.318 158.773 244.562 169.528 239.71 179V179Z" fill="#FBBEBE"/>
<path opacity="0.1" d="M212.24 117.03C205.185 124.376 195.891 129.172 185.816 130.667C175.741 132.162 165.454 130.271 156.57 125.29C156.2 124.02 155.77 122.76 155.34 121.55C154.34 118.65 150.89 113.14 153.34 110.66C154.87 109.09 161.28 108.29 163.49 107.27C170.3 104.13 176.58 99.59 184.06 98.1C190.53 96.81 197.21 98.02 203.67 99.36C204.527 99.4846 205.35 99.7805 206.09 100.23C206.934 100.941 207.558 101.878 207.89 102.93C209.68 107.41 210.76 112.36 212.24 117.03Z" fill="black"/>
<path d="M179.07 129.16C204.475 129.16 225.07 108.565 225.07 83.16C225.07 57.7549 204.475 37.16 179.07 37.16C153.665 37.16 133.07 57.7549 133.07 83.16C133.07 108.565 153.665 129.16 179.07 129.16Z" fill="#FBBEBE"/>
<path d="M319.22 232.45L315.44 209.55C313.53 198.06 311.56 186.35 306.22 176C302.71 169.22 297.14 162.76 289.63 161.42C288.151 161.288 286.697 160.952 285.31 160.42C283.11 159.36 281.91 156.98 280.22 155.22C275.86 150.7 268.76 150.63 262.92 148.33C257.76 146.33 253.54 142.48 248.84 139.54C244.14 136.6 238.29 134.54 233.09 136.42C232.25 145.37 231.36 154.52 227.56 162.67C225.087 167.976 221.459 172.662 216.942 176.385C212.424 180.108 207.132 182.775 201.452 184.189C195.771 185.604 189.847 185.731 184.111 184.562C178.375 183.392 172.973 180.956 168.3 177.43C159.39 170.72 153.68 160.37 151.02 149.54C150.37 146.9 149.63 143.87 147.2 142.66C144.57 141.34 141.41 142.94 139.2 144.88C135.2 148.47 131.93 153.61 126.67 154.82C124.77 155.26 122.67 155.17 121.09 156.32C120.04 157.289 119.161 158.428 118.49 159.69C117.339 161.316 115.801 162.631 114.015 163.514C112.229 164.397 110.251 164.822 108.26 164.75C106.43 164.66 104.26 164.24 103.01 165.57C102.08 166.57 102.01 168.13 101.01 169.06C99.66 170.37 97.47 169.73 95.59 169.66C92.03 169.51 88.72 171.79 86.68 174.66C84.64 177.53 83.68 181.08 82.68 184.52C93.61 208.86 103.61 233.23 114.54 257.57C115.052 258.487 115.324 259.519 115.33 260.57C115.111 261.66 114.646 262.686 113.97 263.57C108.61 272.18 108.78 283.01 109.37 293.13C109.96 303.25 110.68 313.94 106.16 323.01C104.93 325.5 103.33 327.78 102.16 330.27C99.42 335.91 98.43 353.95 100.03 360.01H326.11C321.8 348.16 323.44 324.38 324.34 311.8C324.97 303 323.34 294.21 322.64 285.41C321.11 267.44 322.19 250.39 319.22 232.45Z" fill="#00B0FF"/>
<path d="M65.36 258.65C64.9599 261.544 64.9196 264.476 65.24 267.38L68.11 308.65C68.38 312.54 68.65 316.42 69.01 320.3C69.7 327.83 70.73 335.3 72.01 342.76C72.0388 343.819 72.4867 344.824 73.2554 345.553C74.0241 346.282 75.0507 346.677 76.11 346.65C88.76 349.33 101.83 349.22 114.74 348.49C134.44 347.39 154.11 344.88 173.84 345.31C178.92 345.42 184.84 345.31 187.92 341.31C191 337.31 189.21 330.84 185.19 327.61C181.17 324.38 175.71 323.61 170.55 323.61C163.72 323.54 156.89 324.51 150.08 324.11C143.83 323.74 137.72 322.23 131.66 320.72L114.66 316.49C115.31 311.34 117.27 306.49 119.13 301.6C122.47 292.93 125.59 283.97 125.65 274.68C125.71 265.39 122.21 255.62 114.6 250.3C108.34 245.93 100.28 245.12 92.65 245.3C87.1 245.46 77.51 244.13 72.44 246.3C68.43 248.06 66.11 254.72 65.36 258.65Z" fill="#FBBEBE"/>
<path d="M330.79 353.01C334.12 351.74 337.79 352.2 341.36 352.68C352.85 354.25 364.51 355.86 375.16 360.45C380.16 362.59 384.92 365.45 388.3 369.66C391.3 373.45 393.05 378.09 394.71 382.66L398.55 393.18C400.01 397.18 401.49 401.26 401.9 405.51C403.1 418.1 394.49 429.97 383.66 436.51C372.83 443.05 360.08 445.38 347.66 447.82C335.24 450.26 322.77 452.96 310.4 455.82C304.63 457.317 298.777 458.469 292.87 459.27C279.63 460.77 265.79 458.56 253.21 462.94C248.21 464.69 243.3 467.29 238.11 468.5C234.663 469.225 231.177 469.756 227.67 470.09L203.86 472.81C199.018 473.458 194.144 473.832 189.26 473.93C178.86 473.93 168.63 471.47 158.53 469.01C157.456 468.822 156.434 468.409 155.53 467.8C153.93 466.54 153.58 464.31 153.35 462.29C152.33 453.35 151.437 444.4 150.67 435.44C150.43 432.53 150.25 429.38 151.84 426.93C153.84 423.93 157.74 422.99 161.3 422.41C176.396 419.941 191.688 418.879 206.98 419.24C212.79 413.43 222.37 413.4 229.98 410.24C232.78 408.954 235.489 407.481 238.09 405.83C251.703 397.888 266.915 393.081 282.62 391.76C285.696 391.666 288.751 391.23 291.73 390.46C297.62 388.63 302.99 383.65 309.04 384.87C309.79 382.8 310.31 380.03 312.04 378.61C312.9 377.88 313.96 377.39 314.75 376.61C316.42 374.92 316.57 372.26 316.32 369.9C316.07 367.54 315.51 365.12 316.12 362.82C316.374 361.949 316.747 361.118 317.23 360.35C320.23 355.17 324.76 352.51 330.79 353.01Z" fill="#464353"/>
<path opacity="0.05" d="M330.79 353.01C334.12 351.74 337.79 352.2 341.36 352.68C352.85 354.25 364.51 355.86 375.16 360.45C380.16 362.59 384.92 365.45 388.3 369.66C391.3 373.45 393.05 378.09 394.71 382.66L398.55 393.18C400.01 397.18 401.49 401.26 401.9 405.51C403.1 418.1 394.49 429.97 383.66 436.51C372.83 443.05 360.08 445.38 347.66 447.82C335.24 450.26 322.77 452.96 310.4 455.82C304.63 457.317 298.777 458.469 292.87 459.27C279.63 460.77 265.79 458.56 253.21 462.94C248.21 464.69 243.3 467.29 238.11 468.5C234.663 469.225 231.177 469.756 227.67 470.09L203.86 472.81C199.018 473.458 194.144 473.832 189.26 473.93C178.86 473.93 168.63 471.47 158.53 469.01C157.456 468.822 156.434 468.409 155.53 467.8C153.93 466.54 153.58 464.31 153.35 462.29C152.33 453.35 151.437 444.4 150.67 435.44C150.43 432.53 150.25 429.38 151.84 426.93C153.84 423.93 157.74 422.99 161.3 422.41C176.396 419.941 191.688 418.879 206.98 419.24C212.79 413.43 222.37 413.4 229.98 410.24C232.78 408.954 235.489 407.481 238.09 405.83C251.703 397.888 266.915 393.081 282.62 391.76C285.696 391.666 288.751 391.23 291.73 390.46C297.62 388.63 302.99 383.65 309.04 384.87C309.79 382.8 310.31 380.03 312.04 378.61C312.9 377.88 313.96 377.39 314.75 376.61C316.42 374.92 316.57 372.26 316.32 369.9C316.07 367.54 315.51 365.12 316.12 362.82C316.374 361.949 316.747 361.118 317.23 360.35C320.23 355.17 324.76 352.51 330.79 353.01Z" fill="black"/>
<path d="M134.22 468.72C128.03 475.89 122.58 478.45 112.89 478.22C106.93 478.08 100.977 477.77 95.03 477.29C90.9655 476.851 86.8778 476.66 82.79 476.72C70.45 477.2 58.54 482.85 46.23 481.86C44.4098 481.717 42.6098 481.382 40.86 480.86C38.0674 480.091 35.5435 478.56 33.57 476.44C31.21 473.77 30.08 470.23 29.43 466.73C26.14 448.79 35.16 429.25 50.95 420.12C53.0102 418.789 55.3521 417.957 57.79 417.69C60.1805 417.68 62.5436 418.199 64.71 419.21L64.86 419.27C71.2751 421.91 77.1014 425.798 82 430.71C82.7432 431.561 83.63 432.275 84.62 432.82C85.608 433.193 86.654 433.39 87.71 433.4L100.85 434.23C103.076 434.296 105.289 434.602 107.45 435.14C109.832 435.972 112.152 436.974 114.39 438.14C121.46 441.3 129.3 442.14 136.94 443.36C137.676 443.401 138.379 443.682 138.94 444.16C139.245 444.539 139.457 444.984 139.56 445.46C140.634 449.479 140.708 453.699 139.778 457.753C138.847 461.807 136.939 465.572 134.22 468.72V468.72Z" fill="#3F3D56"/>
<path opacity="0.1" d="M64.86 419.28C59.762 424.148 55.3393 429.677 51.71 435.72C45.886 445.693 42.2267 456.78 40.97 468.26C40.4934 472.448 40.4566 476.674 40.86 480.87C38.0674 480.101 35.5435 478.57 33.57 476.45C31.21 473.78 30.08 470.24 29.43 466.74C26.14 448.8 35.16 429.26 50.95 420.13C53.0102 418.799 55.3521 417.967 57.79 417.7C60.1805 417.69 62.5436 418.209 64.71 419.22L64.86 419.28Z" fill="black"/>
<path d="M319.35 444.16C326.7 443.96 334.95 443.59 340.35 448.54C345.5 453.22 346.18 460.94 346.52 467.89L346.91 475.96C347.03 478.42 347.13 480.96 346.14 483.24C344.38 487.24 339.55 489.17 335.14 488.94C330.73 488.71 326.68 486.78 322.65 485.04C311.709 480.327 300.317 476.738 288.65 474.33C289.03 468.75 289.663 463.197 290.55 457.67C291.16 453.84 291.26 447.43 293.82 444.25C296.53 440.89 300.06 442.71 303.74 443.33C308.904 444.118 314.132 444.396 319.35 444.16V444.16Z" fill="#FBBEBE"/>
<path d="M125.11 363.07C125.11 364.07 123.54 363.07 123.4 362C122.3 353.91 115.88 347.24 108.4 344C100.92 340.76 92.4 340.59 84.3 341.36C72.05 342.52 58.3 347.21 53.82 358.66C52.76 361.34 52.28 364.24 50.98 366.81C49.54 369.63 47.19 371.88 45.63 374.62C42.94 379.36 42.83 385.17 43.8 390.53C46.41 404.83 56.19 417.06 68.04 425.53C79.89 434 93.74 439.06 107.55 443.62C144.067 455.663 181.532 464.612 219.55 470.37C225.71 471.3 231.93 472.16 237.83 474.14C243.11 475.91 248.05 478.56 253.21 480.64C265.21 485.46 278.12 487.18 290.91 488.87C293.09 489.15 295.59 489.35 297.2 487.87C299.28 485.94 298.59 482.58 298 479.81C295.829 469.278 297.65 458.315 303.11 449.05C305.25 445.45 308.03 441.76 307.63 437.59C307.15 432.73 302.31 429.29 297.49 428.51C292.67 427.73 287.77 428.88 282.93 429.51C281.26 429.73 279.44 429.87 277.98 429.02C277.261 428.534 276.608 427.956 276.04 427.3C272.706 424.084 268.438 422.006 263.85 421.364C259.262 420.723 254.588 421.551 250.5 423.73C248.71 424.73 246 422.5 244.14 421.66L223.11 412.14C198.95 401.21 174.67 390.23 149.11 383.31C147.071 382.909 145.132 382.103 143.41 380.94C142.14 379.94 141.23 378.58 140.06 377.47C137.51 375.06 133.96 374.1 130.9 372.39C127.84 370.68 124.41 366.5 125.11 363.07Z" fill="#464353"/>
<path d="M449.32 493.76C445.96 499.99 439.44 503.87 432.44 505.47C430.683 505.866 428.898 506.121 427.1 506.23C418.25 506.78 409.51 504.33 400.98 501.91L389.4 498.65C387.409 498.023 385.368 497.568 383.3 497.29C380.484 497.102 377.656 497.199 374.86 497.58C361.174 498.853 347.377 498.234 333.86 495.74C332.729 495.618 331.643 495.231 330.69 494.61C329.855 493.792 329.114 492.883 328.48 491.9C325.33 488.11 321.94 485.9 325.67 480.9C327.82 478 331.81 476.55 333.48 473.22C335.15 469.89 334.08 465.16 333.09 461.72C331.74 456.97 327.3 454.92 325.71 450.56C324.52 447.27 326.52 443.45 329.53 441.66C332.54 439.87 336.26 439.73 339.73 440.19C343.2 440.65 346.6 441.63 350.09 441.9C360.35 442.72 370.84 437.43 380.69 440.41C382.86 441.07 384.91 442.12 387.11 442.7C391.399 443.659 395.879 443.272 399.94 441.59C401.38 441.05 402.79 440.4 404.19 439.76C406.89 438.354 409.765 437.315 412.74 436.67C422.35 435.02 431.26 441.67 438.51 448.16C440.999 450.226 443.201 452.613 445.06 455.26C447.06 458.38 448.12 462.01 449.06 465.59C451.71 474.84 453.9 485.26 449.32 493.76Z" fill="#3F3D56"/>
<path opacity="0.1" d="M449.32 493.76C445.96 499.99 439.44 503.87 432.44 505.47C435.163 500.18 436.39 494.246 435.99 488.31C435.39 478.8 431.21 469.84 425.88 461.94C422.601 457.077 418.871 452.534 414.74 448.37C411.56 445.17 407.65 442.63 404.23 439.7C406.93 438.294 409.805 437.255 412.78 436.61C422.39 434.96 431.3 441.61 438.55 448.1C441.039 450.166 443.241 452.553 445.1 455.2C447.1 458.32 448.16 461.95 449.1 465.53C451.71 474.84 453.9 485.26 449.32 493.76Z" fill="black"/>
<path d="M82.11 185.26C81.1359 186.28 80.3804 187.488 79.89 188.81C71.8066 207.027 67.0321 226.539 65.79 246.43C65.8117 247.4 65.5882 248.36 65.14 249.22C64.698 249.792 64.2061 250.325 63.67 250.81C63.1832 251.387 62.8199 252.058 62.6026 252.781C62.3853 253.504 62.3187 254.264 62.4068 255.014C62.4949 255.763 62.7359 256.487 63.1148 257.14C63.4938 257.793 64.0027 258.361 64.61 258.81C66.26 255.7 70.21 254.69 73.72 254.42C90.53 253.09 106.95 260.91 123.81 260.32C122.62 256.21 120.91 252.26 119.94 248.1C115.65 229.63 126.35 209.52 119.79 191.73C118.48 188.17 116.29 184.67 112.84 183.11C111.412 182.533 109.917 182.137 108.39 181.93C104.13 181.16 95.65 177.87 91.53 179.19C90.01 179.68 89.41 181.11 88.15 181.97C86.24 183.2 83.7 183.65 82.11 185.26Z" fill="#00B0FF"/>
<path d="M332.6 221.66H125.54C121.138 221.66 117.57 225.228 117.57 229.63V355.69C117.57 360.092 121.138 363.66 125.54 363.66H332.6C337.002 363.66 340.57 360.092 340.57 355.69V229.63C340.57 225.228 337.002 221.66 332.6 221.66Z" fill="#3F3D56"/>
<path d="M228.57 298.66C231.884 298.66 234.57 295.974 234.57 292.66C234.57 289.346 231.884 286.66 228.57 286.66C225.256 286.66 222.57 289.346 222.57 292.66C222.57 295.974 225.256 298.66 228.57 298.66Z" fill="white"/>
<path d="M147.29 8.50001C143.93 10.93 141.63 14.42 139.29 17.77C134.98 23.96 130.1 30.14 123.21 33.59C120.6 34.9 117.62 35.89 115.89 38.17C114.863 39.7119 114.197 41.4653 113.94 43.3C112.62 49.7512 111.93 56.3154 111.88 62.9C111.88 66.18 112.02 69.56 113.47 72.54C114.84 75.34 117.31 77.71 117.82 80.76C118.21 83.14 117.33 85.51 117.02 87.9C116.71 90.29 117.25 93.12 119.46 94.26C120.651 94.7079 121.894 95.0004 123.16 95.13C129.81 96.61 132.04 104.41 133.05 110.86C135.31 110.73 136.33 108.14 136.8 106.03L143.73 75.22C144.48 71.88 145.73 68.01 149.06 66.84C151.29 66.07 153.73 66.79 156.06 66.99C165.21 67.74 172.95 60.67 181.9 58.72C184.765 58.1418 187.694 57.9468 190.61 58.14C197.67 58.49 205.88 61.39 207.38 67.98C207.63 69.05 207.78 70.33 208.78 70.86C209.78 71.39 210.83 70.94 211.88 70.86C216.36 70.41 219 75.45 220.29 79.57L224.99 94.57C225.69 96.84 226.87 99.51 229.33 99.8C231.6 100.08 233.53 97.93 233.87 95.8C234.21 93.67 233.47 91.46 232.98 89.32C230.77 79.47 234.15 69.39 236.21 59.52C238.27 49.65 238.64 38.31 231.73 30.71C229.22 27.96 225.92 25.91 223.58 23.01C221.4 20.29 220.17 16.95 217.91 14.28C211.66 6.91 195.63 1.22 185.8 0.280005C174.57 -0.939995 156.37 1.91001 147.29 8.50001Z" fill="#3F3D56"/>
<g opacity="0.1">
<path opacity="0.1" d="M229.37 92.8C226.91 92.5 225.73 89.8 225.03 87.57C223.463 82.5634 221.897 77.5634 220.33 72.57C219.04 68.44 216.4 63.4 211.92 63.86C210.87 63.97 209.74 64.38 208.82 63.86C207.9 63.34 207.67 62.05 207.42 60.98C205.92 54.38 197.71 51.49 190.65 51.14C187.734 50.9485 184.806 51.1402 181.94 51.71C172.99 53.71 165.25 60.71 156.1 59.98C153.74 59.79 151.3 59.07 149.1 59.84C145.73 61 144.52 64.84 143.77 68.22L136.84 99.02C136.37 101.14 135.35 103.73 133.09 103.85C132.09 97.41 129.85 89.61 123.2 88.13C121.936 87.9907 120.694 87.6986 119.5 87.26C118.63 86.7848 117.949 86.0261 117.57 85.11C117.39 86.04 117.18 86.97 117.06 87.9C116.76 90.28 117.29 93.12 119.5 94.26C120.691 94.7079 121.934 95.0004 123.2 95.13C129.85 96.61 132.08 104.41 133.09 110.86C135.35 110.73 136.37 108.14 136.84 106.03L143.77 75.22C144.52 71.88 145.77 68.01 149.1 66.84C151.33 66.07 153.77 66.79 156.1 66.99C165.25 67.74 172.99 60.67 181.94 58.72C184.805 58.1418 187.734 57.9468 190.65 58.14C197.71 58.49 205.92 61.39 207.42 67.98C207.67 69.05 207.82 70.33 208.82 70.86C209.82 71.39 210.87 70.94 211.92 70.86C216.4 70.41 219.04 75.45 220.33 79.57C221.89 84.5767 223.457 89.5767 225.03 94.57C225.73 96.84 226.91 99.51 229.37 99.8C231.64 100.08 233.57 97.93 233.91 95.8C234.064 94.0077 233.86 92.2028 233.31 90.49C232.953 91.2199 232.389 91.8283 231.688 92.2392C230.988 92.6501 230.181 92.8451 229.37 92.8V92.8Z" fill="black"/>
<path opacity="0.1" d="M117.83 73.76C117.32 70.71 114.83 68.34 113.48 65.54C112.612 63.6515 112.11 61.6155 112 59.54C112 60.66 111.9 61.78 111.89 62.91C111.89 66.19 112.03 69.57 113.48 72.55C114.59 74.82 116.42 76.82 117.34 79.13C117.825 77.3841 117.991 75.5649 117.83 73.76V73.76Z" fill="black"/>
<path opacity="0.1" d="M236.25 52.48C234.43 61.2 231.59 70.08 232.47 78.82C233.04 72.37 234.92 65.88 236.25 59.48C237.359 54.6199 237.75 49.6235 237.41 44.65C237.193 47.2823 236.805 49.8978 236.25 52.48Z" fill="black"/>
</g>
<g opacity="0.1">
<path opacity="0.1" d="M86.35 112.36C86.35 112.36 11.58 80.92 1.77999 137.65C1.77999 137.65 -3.33001 146.49 3.77999 153.79C3.77999 153.79 5.30999 149.87 12.53 153.92C15.1088 155.346 17.848 156.461 20.69 157.24C24.5281 158.299 28.6063 158.081 32.31 156.62V156.62C32.31 156.62 56.9 155.29 77.58 123.12C77.58 123.12 86.45 117.64 86.89 115.58L72.07 116.58C72.07 116.58 73.21 127.43 67.07 133.94C67.07 133.94 72.51 117.1 69.9 116.63C69.37 116.53 62.07 117.49 62.07 117.49C62.07 117.49 63.96 136.36 54.07 146.12C54.07 146.12 63.25 126.93 59.26 117.83L48.32 119.94C48.32 119.94 51.32 139.79 40.5 151.33C40.5 151.33 49.4 130.93 45.96 120.57L35.49 124.09C35.49 124.09 38.01 143.5 28.96 153.09C28.96 153.09 36.86 128.48 33.14 125.09C33.14 125.09 23.72 128.91 21.71 131.09C21.71 131.09 23.2 145.09 17.45 150.14C17.45 150.14 20.98 133.14 19.23 132.44C19.23 132.44 8.28999 140.68 4.94999 147.79C4.94999 147.79 9.11 136.93 17.86 130.79C17.86 130.79 10.51 129.55 4.86 132.62C4.86 132.62 8.64 125.41 20.51 128.83C20.51 128.83 29.3 122.74 31.06 122.83C31.06 122.83 19.83 117.83 11.72 118.45C11.72 118.45 20.42 113.45 33.8 121.8L44.25 118.03C44.25 118.03 29.75 110.6 22.49 110.63C22.49 110.63 32.15 106.89 46.96 117.29L57.66 115.11C57.66 115.11 45.66 107.76 37.57 106.05C37.57 106.05 47.27 104.51 60.75 114.6L68.06 113.99C68.06 113.99 59.21 108.77 56.53 107.5C53.85 106.23 53.97 105.41 53.97 105.41C60.3298 106.499 66.263 109.331 71.11 113.59C71.11 113.59 86.29 113.29 86.35 112.36Z" fill="#00B0FF"/>
</g>
<g opacity="0.1">
<path opacity="0.1" d="M83.59 56C83.59 56 57.11 -5.27001 18.96 22.83C18.96 22.83 10.9 25.17 10.96 33.53C10.96 33.53 14.1 32.07 16.09 38.6C16.8197 40.9163 17.827 43.1358 19.09 45.21C20.7592 48.0292 23.3056 50.2244 26.34 51.46C26.34 51.46 41.71 64.68 72.34 57.35C72.34 57.35 80.74 59.14 82.17 58.18L72.81 50.31C72.81 50.31 67.3 57.41 59.92 57.75C59.92 57.75 72.75 50.85 71.47 49.08C71.21 48.72 66.32 45.14 66.32 45.14C66.32 45.14 56.7 57.42 45.32 57.61C45.32 57.61 61.71 51.43 64.52 43.76L56.82 38.76C56.82 38.76 47.11 52.27 34.11 52.97C34.11 52.97 51.02 45.92 54.88 37.8L46.65 33.93C46.65 33.93 37.09 46.93 26.28 47.42C26.28 47.42 45 37.3 44.71 33.17C44.71 33.17 36.94 30.07 34.47 30.25C34.47 30.25 27.4 39.4 21.09 39.14C21.09 39.14 32.88 31.05 32.24 29.64C32.24 29.64 21.04 28.3 15.01 30.64C15.01 30.64 23.67 26.56 32.36 27.9C32.36 27.9 28.7 22.97 23.61 21.6C23.61 21.6 29.97 19.47 35.07 28.25C35.07 28.25 43.75 29.65 44.77 30.69C44.77 30.69 40.96 21.3 35.77 17.07C35.77 17.07 43.77 19.07 46.97 31.64L55.33 35.35C55.33 35.35 50.95 22.67 46.61 18.56C46.61 18.56 54.48 21.84 57.36 36.46L64.96 41.25C64.96 41.25 62.02 30.05 58.19 24.42C58.19 24.42 64.83 29.04 67.08 42.71L71.78 46.51C71.78 46.51 69.49 38.37 68.62 36.09C67.75 33.81 68.29 33.39 68.29 33.39C71.4489 37.6779 73.35 42.7615 73.78 48.07C73.78 48.07 83.02 56.51 83.59 56Z" fill="#00B0FF"/>
</g>
</svg>
