<?xml version="1.0" encoding="iso-8859-1"?>
<!-- Generator: Adobe Illustrator 19.0.0, SVG Export Plug-In . SVG Version: 6.00 Build 0)  -->
<svg version="1.1" id="Capa_1" xmlns="http://www.w3.org/2000/svg" xmlns:xlink="http://www.w3.org/1999/xlink" x="0px" y="0px"
	 viewBox="0 0 512 512" style="enable-background:new 0 0 512 512;" xml:space="preserve">
<path id="SVGCleanerId_0" style="fill:#F2EDEC;" d="M151.796,31.562C76.538,31.562,15.53,92.57,15.53,167.828h272.532
	C288.063,92.57,227.054,31.562,151.796,31.562z"/>
<g>
	<path id="SVGCleanerId_0_1_" style="fill:#F2EDEC;" d="M151.796,31.562C76.538,31.562,15.53,92.57,15.53,167.828h272.532
		C288.063,92.57,227.054,31.562,151.796,31.562z"/>
</g>
<path style="fill:#F56C6C;" d="M151.796,31.562c-48.696,0-88.172,61.008-88.172,136.266h176.344
	C239.969,92.57,200.493,31.562,151.796,31.562z"/>
<path style="fill:#F2EDEC;" d="M151.796,31.562c-17.708,0-32.063,61.008-32.063,136.266h64.125
	C183.859,92.57,169.504,31.562,151.796,31.562z"/>
<rect x="15.53" y="288.063" style="fill:#FBDC40;" width="408.798" height="152.297"/>
<rect x="15.53" y="288.063" style="fill:#FAD000;" width="24.047" height="152.297"/>
<rect x="15.53" y="288.063" style="fill:#FA892D;" width="408.798" height="32.063"/>
<rect x="15.53" y="288.063" style="fill:#E06B1D;" width="24.047" height="32.063"/>
<rect x="95.687" y="256" style="fill:#D7C8C5;" width="104.204" height="32.063"/>
<rect x="95.687" y="256" style="fill:#CAB5B1;" width="24.047" height="32.063"/>
<circle style="fill:#F79191;" cx="320.125" cy="440.36" r="24.047"/>
<circle style="fill:#F56C6C;" cx="320.125" cy="440.36" r="8.016"/>
<circle style="fill:#F79191;" cx="95.687" cy="480.438" r="24.047"/>
<g>
	<polygon style="fill:#F56C6C;" points="167.828,368.219 135.765,320.125 199.89,320.125 	"/>
	<polygon style="fill:#F56C6C;" points="264.016,368.219 231.953,320.125 296.078,320.125 	"/>
	<polygon style="fill:#F56C6C;" points="71.64,368.219 39.577,320.125 103.703,320.125 	"/>
</g>
<path d="M496.47,248.485h-32.063c-2.634,0-5.076,1.38-6.437,3.635l-26.127,43.348v-7.405c0-4.151-3.364-7.515-7.515-7.515h-40.604
	c0.011-0.166,0.025-0.332,0.025-0.501v-16.532h16.532c4.151,0,7.515-3.364,7.515-7.515c0-4.151-3.364-7.515-7.515-7.515H239.969
	c-4.151,0-7.515,3.364-7.515,7.515c0,4.151,3.364,7.515,7.515,7.515h16.532v16.532c0,0.169,0.014,0.335,0.025,0.501h-49.121V256
	c0-4.151-3.364-7.515-7.515-7.515h-40.579v-73.143h128.751c4.151,0,7.515-3.364,7.515-7.515c0-32.89-10.809-63.846-31.26-89.518
	c-2.586-3.246-7.313-3.782-10.56-1.195c-3.246,2.586-3.781,7.314-1.195,10.56c16.744,21.019,26.268,45.996,27.775,72.639h-32.986
	c-1.184-35.018-10.626-67.776-26.897-92.922c-3.499-5.408-7.236-10.338-11.174-14.786c5.308,2.655,10.46,5.672,15.409,9.077
	c3.417,2.353,8.098,1.489,10.45-1.932c2.353-3.419,1.488-8.098-1.932-10.45c-21.679-14.917-46.74-23.46-72.932-24.982
	c0.024-0.253,0.037-0.511,0.037-0.772V7.515c0-4.151-3.364-7.515-7.515-7.515s-7.515,3.364-7.515,7.515v16.031
	c0,0.22,0.014,0.438,0.033,0.653C69.032,27.601,8.016,90.719,8.016,167.828c0,4.151,3.364,7.515,7.515,7.515h128.751v73.143H95.687
	c-4.151,0-7.515,3.364-7.515,7.515v24.548H71.114c0.011-0.166,0.025-0.332,0.025-0.501v-16.031c0-4.151-3.364-7.515-7.515-7.515
	c-4.151,0-7.515,3.364-7.515,7.515v16.031c0,0.169,0.014,0.335,0.025,0.501h-9.068c0.011-0.166,0.025-0.332,0.025-0.501v-16.031
	c0-4.151-3.364-7.515-7.515-7.515s-7.515,3.364-7.515,7.515v16.031c0,0.169,0.014,0.335,0.025,0.501H15.53
	c-4.151,0-7.515,3.364-7.515,7.515V440.36c0,4.151,3.364,7.515,7.515,7.515h72.642v1.913c-13.786,3.382-24.047,15.837-24.047,30.651
	c0,17.403,14.159,31.562,31.562,31.562s31.562-14.159,31.562-31.562c0-14.814-10.261-27.269-24.047-30.651v-1.913h145.68
	c3.768,35.983,34.28,64.125,71.244,64.125s67.475-28.142,71.243-64.125h32.96c4.151,0,7.515-3.364,7.515-7.515V324.506
	c0.118-0.165,0.242-0.324,0.35-0.501l36.458-60.49h27.818c4.151,0,7.515-3.364,7.515-7.515
	C503.984,251.849,500.621,248.485,496.47,248.485z M232.319,160.313h-40.995c-0.43-34.147-3.776-66.067-9.541-90.562
	c-2.457-10.44-5.21-19.054-8.282-25.886c12.736,5.736,24.511,16.508,34.334,31.689C222.569,98.326,231.158,128.185,232.319,160.313z
	 M94.251,52.674c-3.915,4.429-7.631,9.337-11.112,14.717c-16.271,25.146-25.711,57.904-26.897,92.922H23.261
	C25.987,113.184,54.183,72.779,94.251,52.674z M95.758,75.555c9.823-15.181,21.597-25.953,34.334-31.689
	c-3.071,6.831-5.825,15.445-8.282,25.886c-5.764,24.495-9.111,56.415-9.541,90.562H71.274
	C72.434,128.185,81.024,98.326,95.758,75.555z M136.439,73.194c6.6-28.046,13.903-34.118,15.357-34.118s8.757,6.072,15.357,34.118
	c5.51,23.421,8.719,54.121,9.143,87.119h-49C127.72,127.314,130.93,96.615,136.439,73.194z M112.219,480.438
	c0,9.116-7.416,16.532-16.532,16.532s-16.532-7.417-16.532-16.532c0-6.409,3.673-11.964,9.018-14.707v14.707
	c0,4.151,3.364,7.515,7.515,7.515c4.151,0,7.515-3.364,7.515-7.515v-14.707C108.546,468.474,112.219,474.03,112.219,480.438z
	 M368.745,280.548h-41.13c0.011-0.166,0.025-0.332,0.025-0.501v-16.532h41.08v16.532
	C368.72,280.216,368.734,280.382,368.745,280.548z M271.53,280.047v-16.532h41.08v16.532c0,0.169,0.014,0.335,0.025,0.501h-41.13
	C271.516,280.382,271.53,280.216,271.53,280.047z M103.202,263.515h89.174v17.033h-89.174V263.515z M23.045,295.577h393.769v17.033
	H23.546h-0.501V295.577z M282.037,327.64l-18.021,27.032l-18.021-27.032H282.037z M185.849,327.64l-18.021,27.032l-18.021-27.032
	H185.849z M89.661,327.64L71.64,354.672L53.619,327.64H89.661z M354.463,395.394l-17.981,17.981
	c-2.707-1.647-5.683-2.892-8.841-3.666v-25.446C337.636,385.596,346.813,389.539,354.463,395.394z M365.091,474.698l-17.981-17.981
	c1.647-2.707,2.892-5.683,3.666-8.841h25.446C374.889,457.871,370.945,467.048,365.091,474.698z M320.125,423.828
	c9.116,0,16.532,7.417,16.532,16.532s-7.417,16.532-16.532,16.532s-16.532-7.417-16.532-16.532S311.009,423.828,320.125,423.828z
	 M303.769,467.345c2.707,1.647,5.683,2.892,8.841,3.666v25.446c-9.997-1.333-19.173-5.276-26.823-11.131L303.769,467.345z
	 M327.64,471.011c3.158-0.775,6.134-2.02,8.841-3.666l17.981,17.981c-7.649,5.855-16.827,9.798-26.823,11.131L327.64,471.011
	L327.64,471.011z M350.776,432.845c-0.775-3.158-2.019-6.134-3.666-8.841l17.981-17.981c5.855,7.649,9.798,16.827,11.131,26.823
	L350.776,432.845L350.776,432.845z M312.611,409.709c-3.158,0.775-6.134,2.02-8.841,3.666l-17.981-17.981
	c7.649-5.855,16.827-9.798,26.823-11.131L312.611,409.709L312.611,409.709z M275.159,406.022l17.981,17.981
	c-1.647,2.707-2.892,5.683-3.666,8.841h-25.446C265.361,422.849,269.305,413.672,275.159,406.022z M264.029,447.875h25.446
	c0.775,3.158,2.019,6.134,3.666,8.841l-17.981,17.981C269.305,467.048,265.361,457.871,264.029,447.875z M391.368,432.845
	c-3.768-35.983-34.28-64.125-71.243-64.125s-67.475,28.142-71.244,64.125h-145.68v-8.517c0-4.151-3.364-7.515-7.515-7.515
	c-4.151,0-7.515,3.364-7.515,7.515v8.517H23.045V327.64h0.501h12.009l29.831,44.747c2.922,4.385,9.583,4.386,12.504,0l29.833-44.747
	h24.02l29.831,44.747c2.922,4.385,9.583,4.386,12.504,0l29.832-44.747h24.02l29.831,44.747c2.922,4.385,9.583,4.386,12.504,0
	L300.1,327.64h116.714v105.205H391.368z"/>
<path d="M315.53,217.813c-0.147,0.196-0.376,0.468-0.719,0.811c-2.935,2.936-2.935,7.693,0,10.628c2.896,2.895,7.732,2.895,10.628,0
	c10.312-10.313,2.969-19.585-0.167-23.544c-1.15-1.454-2.584-3.262-2.715-4.197c-0.062-0.437,0.462-1.901,2.883-4.321
	c2.935-2.936,2.935-7.693,0-10.628c-2.936-2.934-7.693-2.934-10.628,0c-13.324,13.325-4.912,23.944-1.32,28.479
	C314.156,215.879,315.095,217.066,315.53,217.813z"/>
<path d="M352.683,217.813c-0.147,0.196-0.376,0.468-0.719,0.811c-2.935,2.936-2.935,7.693,0,10.628
	c2.896,2.895,7.732,2.895,10.628,0c10.312-10.313,2.969-19.585-0.167-23.544c-1.15-1.454-2.584-3.262-2.715-4.197
	c-0.062-0.437,0.462-1.901,2.883-4.321c2.935-2.936,2.935-7.693,0-10.628c-2.936-2.934-7.693-2.934-10.628,0
	c-13.324,13.325-4.912,23.944-1.32,28.479C351.308,215.879,352.249,217.066,352.683,217.813z"/>
<path d="M271.807,229.252c2.896,2.895,7.732,2.895,10.628,0c10.312-10.313,2.969-19.585-0.167-23.544
	c-1.15-1.454-2.584-3.262-2.715-4.197c-0.062-0.437,0.462-1.901,2.883-4.321c2.935-2.936,2.935-7.693,0-10.628
	c-2.936-2.934-7.693-2.934-10.628,0c-13.324,13.325-4.912,23.944-1.32,28.479c0.664,0.84,1.605,2.026,2.039,2.774
	c-0.147,0.196-0.376,0.468-0.719,0.811C268.873,221.559,268.873,226.316,271.807,229.252z"/>
<g>
</g>
<g>
</g>
<g>
</g>
<g>
</g>
<g>
</g>
<g>
</g>
<g>
</g>
<g>
</g>
<g>
</g>
<g>
</g>
<g>
</g>
<g>
</g>
<g>
</g>
<g>
</g>
<g>
</g>
</svg>
